<svg xmlns="http://www.w3.org/2000/svg" version="1.1" xmlns:xlink="http://www.w3.org/1999/xlink" xmlns:svgjs="http://svgjs.dev/svgjs" width="1500" height="1500" viewBox="0 0 1500 1500"><rect width="1500" height="1500" fill="#ffffff"></rect><g transform="matrix(0.6666666666666666,0,0,0.6666666666666666,249.78425655976667,249.78425655976673)"><svg viewBox="0 0 343 343" data-background-color="#3b4131" preserveAspectRatio="xMidYMid meet" height="1500" width="1500" xmlns="http://www.w3.org/2000/svg" xmlns:xlink="http://www.w3.org/1999/xlink"><g id="tight-bounds" transform="matrix(1,0,0,1,0.0740000000000407,0.07400000000001228)"><svg viewBox="0 0 342.85155851775386 342.85155851775386" height="342.85155851775386" width="342.85155851775386"><g><svg></svg></g><g><svg viewBox="0 0 342.85155851775386 342.85155851775386" height="342.85155851775386" width="342.85155851775386"><g><path d="M0 171.426c0-94.676 76.75-171.426 171.426-171.426 94.676 0 171.426 76.75 171.426 171.426 0 94.676-76.75 171.426-171.426 171.426-94.676 0-171.426-76.75-171.426-171.426zM171.426 339.92c93.057 0 168.494-75.437 168.494-168.494 0-93.057-75.437-168.494-168.494-168.494-93.057 0-168.494 75.437-168.494 168.494 0 93.057 75.437 168.494 168.494 168.494z" data-fill-palette-color="tertiary" fill="#000000" stroke="transparent"></path><ellipse rx="164.56874808852186" ry="164.56874808852186" cx="171.42577925887693" cy="171.42577925887693" fill="#000000" stroke="transparent" stroke-width="0" fill-opacity="1" data-fill-palette-color="tertiary"></ellipse></g><g transform="matrix(1,0,0,1,64.84655864529837,128.86627679659975)"><svg viewBox="0 0 213.1584412271571 85.11900492455436" height="85.11900492455436" width="213.1584412271571"><g><svg viewBox="0 0 213.1584412271571 85.11900492455436" height="85.11900492455436" width="213.1584412271571"><g><svg viewBox="0 0 213.1584412271571 85.11900492455436" height="85.11900492455436" width="213.1584412271571"><g transform="matrix(1,0,0,1,0,52.60695984849302)"><svg viewBox="0 0 213.1584412271571 32.512045076061334" height="32.512045076061334" width="213.1584412271571"><g id="textblocktransform"><svg viewBox="0 0 213.1584412271571 32.512045076061334" height="32.512045076061334" width="213.1584412271571" id="textblock"><g><svg viewBox="0 0 213.1584412271571 32.512045076061334" height="32.512045076061334" width="213.1584412271571"><g transform="matrix(1,0,0,1,0,0)"><svg width="213.1584412271571" viewBox="1.05 -37 247.48 37.75" height="32.512045076061334" data-palette-color="#3b4131"><path d="M19.7-31.7L19.9-32.95Q22.95-32.55 27.33-32.55 31.7-32.55 34.9-32.95L34.9-32.95 35.05-31.75Q32.2-31.05 29.55-30.8L29.55-30.8Q28.9-27.1 28.9-17.75L28.9-17.75 28.9-14.8Q28.9-5.45 29.55-1.75L29.55-1.75Q32.2-1.5 35.05-0.8L35.05-0.8 34.9 0.4Q31.7 0 27.33 0 22.95 0 19.9 0.4L19.9 0.4 19.7-0.85Q21.95-1.55 24.5-1.9L24.5-1.9Q25-6.95 25.05-16.4L25.05-16.4Q21.35-16.75 17.7-16.75 14.05-16.75 10.35-16.4L10.35-16.4Q10.4-5.7 11-1.75L11-1.75Q13.65-1.5 16.5-0.8L16.5-0.8 16.35 0.4Q12.65 0 8.33 0 4 0 1.35 0.4L1.35 0.4 1.15-0.85Q3.4-1.55 5.95-1.9L5.95-1.9Q6.5-6 6.5-14.8L6.5-14.8 6.5-17.75Q6.5-25.85 5.85-30.65L5.85-30.65Q3.3-31 1.05-31.7L1.05-31.7 1.25-32.95Q3.9-32.55 8.22-32.55 12.55-32.55 16.25-32.95L16.25-32.95 16.4-31.75Q13.55-31.05 10.9-30.8L10.9-30.8Q10.45-27.85 10.35-19.1L10.35-19.1Q14.15-18.6 17.9-18.6 21.65-18.6 25.05-19.05L25.05-19.05Q25-25.65 24.5-30.65L24.5-30.65Q21.95-31 19.7-31.7L19.7-31.7ZM37.9-8.8L37.9-8.8Q37.9-14 40.7-18.32 43.5-22.65 48.2-24.25L48.2-24.25Q51.55-24.25 55.2-23.2L55.2-23.2Q55.9-24.25 56.35-25.85L56.35-25.85 57.4-25.55Q56.3-21.05 56.3-9.65L56.3-9.65Q56.3-4.55 56.65-1.65L56.65-1.65Q57.85-1.25 59.35-1.25L59.35-1.25 59.35-0.2Q56.15-0.05 52.6 0.75L52.6 0.75 52.25 0.55Q52.8-2.9 52.8-7.25L52.8-7.25 52.6-7.3Q50.85-4.8 48.45-2.45 46.05-0.1 43.9 0.75L43.9 0.75Q41.15 0.75 39.52-2.3 37.9-5.35 37.9-8.8ZM41.9-11.05L41.9-11.05Q41.9-8.6 42.77-5.98 43.65-3.35 45.3-3.35L45.3-3.35Q47.05-3.35 49.55-5.85 52.05-8.35 52.8-10.35L52.8-10.35Q52.8-17.8 52.45-19.95L52.45-19.95Q49.8-21.15 47.32-21.15 44.85-21.15 43.55-19.95L43.55-19.95Q41.9-16.15 41.9-11.05ZM74.65-0.55L74.55 0.4Q72 0 69 0 66 0 63.15 0.3L63.15 0.3 63-0.65Q64.5-1.3 65.95-1.65L65.95-1.65Q66.4-5.05 66.4-9.5L66.4-9.5 66.4-13.7Q66.4-18.3 66.05-21.85L66.05-21.85Q64.84-22.25 63.35-22.25L63.35-22.25 63.35-23.3Q66.55-23.45 70.09-24.25L70.09-24.25 70.45-24.05Q69.9-20.6 69.9-16.25L69.9-16.25 70.09-16.2Q70.8-18.2 72.67-20.83 74.55-23.45 76.15-24.25L76.15-24.25Q78.4-24.25 80.55-23.45L80.55-23.45 80.55-22.75Q78.65-20.35 78.4-16.5L78.4-16.5 77.3-16.5Q77.3-18.45 77.2-19.55L77.2-19.55Q76.55-20.05 75.5-20.05L75.5-20.05Q74-20.05 72.32-17.68 70.65-15.3 69.9-13.15L69.9-13.15Q69.9-5.9 70.45-1.5L70.45-1.5Q72.95-1.15 74.65-0.55L74.65-0.55ZM103.09-14.7L103.09-14.7Q103.09-9.5 100.29-5.18 97.49-0.85 92.79 0.75L92.79 0.75Q87.99 0.75 84.04-1.05L84.04-1.05Q84.69-6.85 84.69-19.4 84.69-31.95 83.49-36.7L83.49-36.7 84.54-37Q84.99-35.4 85.69-34.35L85.69-34.35Q88.44-34.8 91.04-35.55L91.04-35.55 91.29-34.65Q90.34-33.9 88.94-33.2L88.94-33.2Q88.19-29.1 88.19-16.25L88.19-16.25 88.39-16.2Q90.14-18.7 92.54-21.05 94.94-23.4 97.09-24.25L97.09-24.25Q99.84-24.25 101.47-21.2 103.09-18.15 103.09-14.7ZM99.09-12.45L99.09-12.45Q99.09-14.9 98.22-17.53 97.34-20.15 95.69-20.15L95.69-20.15Q93.94-20.15 91.44-17.65 88.94-15.15 88.19-13.15L88.19-13.15Q88.19-5.7 88.54-3.55L88.54-3.55Q91.19-2.35 93.67-2.35 96.14-2.35 97.44-3.55L97.44-3.55Q99.09-7.35 99.09-12.45ZM108.19-8.8L108.19-8.8Q108.19-14 110.99-18.32 113.79-22.65 118.49-24.25L118.49-24.25Q121.84-24.25 125.49-23.2L125.49-23.2Q126.19-24.25 126.64-25.85L126.64-25.85 127.69-25.55Q126.59-21.05 126.59-9.65L126.59-9.65Q126.59-4.55 126.94-1.65L126.94-1.65Q128.14-1.25 129.64-1.25L129.64-1.25 129.64-0.2Q126.44-0.05 122.89 0.75L122.89 0.75 122.54 0.55Q123.09-2.9 123.09-7.25L123.09-7.25 122.89-7.3Q121.14-4.8 118.74-2.45 116.34-0.1 114.19 0.75L114.19 0.75Q111.44 0.75 109.82-2.3 108.19-5.35 108.19-8.8ZM112.19-11.05L112.19-11.05Q112.19-8.6 113.07-5.98 113.94-3.35 115.59-3.35L115.59-3.35Q117.34-3.35 119.84-5.85 122.34-8.35 123.09-10.35L123.09-10.35Q123.09-17.8 122.74-19.95L122.74-19.95Q120.09-21.15 117.62-21.15 115.14-21.15 113.84-19.95L113.84-19.95Q112.19-16.15 112.19-11.05ZM150.64-14.55L150.64-14.55Q150.64-20.15 148.34-20.15L148.34-20.15Q146.39-20.15 143.74-17.7 141.09-15.25 140.19-13.15L140.19-13.15Q140.19-5.9 140.74-1.5L140.74-1.5Q142.09-1.2 143.89-0.55L143.89-0.55 143.79 0.4Q140.99 0 138.49 0 135.99 0 133.44 0.3L133.44 0.3 133.29-0.65Q134.79-1.3 136.24-1.65L136.24-1.65Q136.69-5.05 136.69-9.5L136.69-9.5 136.69-13.7Q136.69-18.3 136.34-21.85L136.34-21.85Q135.14-22.25 133.64-22.25L133.64-22.25 133.64-23.3Q136.84-23.45 140.39-24.25L140.39-24.25 140.74-24.05Q140.19-20.6 140.19-16.25L140.19-16.25 140.39-16.2Q142.09-18.55 144.81-21.03 147.54-23.5 149.74-24.25L149.74-24.25Q152.79-24.25 153.69-21.5L153.69-21.5Q154.29-19.55 154.29-16.7L154.29-16.7Q154.29-16.25 154.29-15.7L154.29-15.7 154.04-1.65Q155.49-1.3 156.99-0.65L156.99-0.65 156.84 0.3Q154.44 0 152.76 0 151.09 0 149.59 0.1L149.59 0.1 149.59-0.6Q150.39-4.5 150.59-13.45L150.59-13.45Q150.64-13.95 150.64-14.55ZM163.39-5.5L163.39-5.5 163.49-3.4 163.49-3.2Q165.79-2.35 167.84-2.35 169.89-2.35 171.26-3.25 172.64-4.15 172.64-6.25L172.64-6.25Q172.64-7.8 167.39-10.5L167.39-10.5Q165.44-11.5 163.79-12.93 162.14-14.35 162.14-15.7L162.14-15.7Q162.14-18.35 164.96-21.03 167.79-23.7 170.29-24.25L170.29-24.25Q173.49-24.25 176.49-23.45L176.49-23.45 176.49-22.75Q174.54-20.35 174.34-17.5L174.34-17.5 173.24-17.5Q173.24-19.45 173.14-20.55L173.14-20.55Q171.19-21.15 169.44-21.15 167.69-21.15 166.31-20.48 164.94-19.8 164.94-18.3L164.94-18.3Q164.94-17.4 166.59-16.2 168.24-15 170.19-14.03 172.14-13.05 173.79-11.6 175.44-10.15 175.44-8.8L175.44-8.8Q175.44-5.75 172.66-2.93 169.89-0.1 167.04 0.75L167.04 0.75Q163.44 0.75 160.14-0.3L160.14-0.3 160.14-1Q162.09-3.4 162.29-6.25L162.29-6.25 163.39-6.25Q163.39-6.25 163.39-5.5ZM211.13-0.45L210.83 0.55Q205.83 0 199.41 0 192.98 0 188.53 0.5L188.53 0.5 188.33-0.75Q190.28-1.4 193.13-1.9L193.13-1.9Q193.68-6 193.68-14.8L193.68-14.8 193.68-17.75Q193.68-26.5 193.13-30.65L193.13-30.65Q190.58-31 188.33-31.7L188.33-31.7 188.53-32.95Q191.18-32.55 195.51-32.55 199.83-32.55 203.53-32.95L203.53-32.95 203.68-31.75Q200.68-31.05 198.18-30.8L198.18-30.8Q197.53-26.4 197.53-16.1 197.53-5.8 198.03-2.1L198.03-2.1Q199.68-1.85 202.48-1.85 205.28-1.85 207.28-2.75L207.28-2.75Q207.88-4.6 208.23-8.35L208.23-8.35 209.48-8.35Q209.68-3.05 211.13-0.45L211.13-0.45ZM212.58-8.8L212.58-8.8Q212.58-14 215.38-18.32 218.18-22.65 222.88-24.25L222.88-24.25Q226.23-24.25 229.88-23.2L229.88-23.2Q230.58-24.25 231.03-25.85L231.03-25.85 232.08-25.55Q230.98-21.05 230.98-9.65L230.98-9.65Q230.98-4.55 231.33-1.65L231.33-1.65Q232.53-1.25 234.03-1.25L234.03-1.25 234.03-0.2Q230.83-0.05 227.28 0.75L227.28 0.75 226.93 0.55Q227.48-2.9 227.48-7.25L227.48-7.25 227.28-7.3Q225.53-4.8 223.13-2.45 220.73-0.1 218.58 0.75L218.58 0.75Q215.83 0.75 214.2-2.3 212.58-5.35 212.58-8.8ZM216.58-11.05L216.58-11.05Q216.58-8.6 217.45-5.98 218.33-3.35 219.98-3.35L219.98-3.35Q221.73-3.35 224.23-5.85 226.73-8.35 227.48-10.35L227.48-10.35Q227.48-17.8 227.13-19.95L227.13-19.95Q224.48-21.15 222-21.15 219.53-21.15 218.23-19.95L218.23-19.95Q216.58-16.15 216.58-11.05ZM245.18-20.85L245.08-11.5Q245.08-10.05 245.08-6.93 245.08-3.8 245.38-1.5L245.38-1.5Q246.78-1.2 248.53-0.55L248.53-0.55 248.43 0.4Q245.63 0 243.13 0 240.63 0 238.08 0.3L238.08 0.3 237.93-0.65Q239.43-1.3 240.88-1.65L240.88-1.65Q241.33-4.85 241.38-11.5L241.38-11.5 241.48-20.85Q241.48-22.15 241.48-25.53 241.48-28.9 241.13-32.45L241.13-32.45Q239.83-32.85 238.43-32.85L238.43-32.85 238.43-33.9Q243.43-34.25 247.98-35.55L247.98-35.55 248.23-34.65Q247.28-33.9 245.88-33.2L245.88-33.2Q245.28-29.9 245.18-20.85L245.18-20.85Z" opacity="1" transform="matrix(1,0,0,1,0,0)" fill="#ffffff" class="wordmark-text-0" data-fill-palette-color="quaternary" id="text-0"></path></svg></g></svg></g></svg></g></svg></g><g transform="matrix(1,0,0,1,84.11314784576298,0)"><svg viewBox="0 0 44.93214553563116 44.931646295116764" height="44.931646295116764" width="44.93214553563116"><g><svg xmlns="http://www.w3.org/2000/svg" xmlns:xlink="http://www.w3.org/1999/xlink" version="1.1" x="0" y="0" viewBox="4.967 5 90.001 90" enable-background="new 0 0 100 100" xml:space="preserve" height="44.931646295116764" width="44.93214553563116" class="icon-icon-0" data-fill-palette-color="quaternary" id="icon-0"><g fill="#3b4131" data-fill-palette-color="quaternary"><polygon points="81.588,69.219 76.042,77.733 49.901,5 30.566,58.797 24.486,43.546 4.967,95 17.555,95 45,95 64.794,95 82.249,95    94.968,95  " fill="#ffffff" data-fill-palette-color="quaternary"></polygon></g></svg></g></svg></g><g></g></svg></g></svg></g></svg></g></svg></g><defs></defs></svg><rect width="342.85155851775386" height="342.85155851775386" fill="none" stroke="none" visibility="hidden"></rect></g></svg></g></svg>